<svg width="34" height="33" viewBox="0 0 34 33" fill="none" xmlns="http://www.w3.org/2000/svg">
<path d="M9.1429 19.2461H20.0596V16.5169H9.1429V19.2461ZM9.1429 15.1523H25.5179V12.4232H9.1429V15.1523ZM9.1429 11.0586H25.5179V8.32943H9.1429V11.0586ZM3.68457 30.1628V5.60026C3.68457 4.84974 3.95203 4.20748 4.48695 3.67347C5.02186 3.13946 5.66413 2.872 6.41374 2.87109H28.2471C28.9976 2.87109 29.6403 3.13855 30.1752 3.67347C30.7101 4.20839 30.9771 4.85065 30.9762 5.60026V21.9753C30.9762 22.7258 30.7092 23.3685 30.1752 23.9034C29.6412 24.4383 28.9985 24.7053 28.2471 24.7044H9.1429L3.68457 30.1628ZM7.98301 21.9753H28.2471V5.60026H6.41374V23.5104L7.98301 21.9753Z" fill="#44693E"/>
</svg>
