<svg width="23" height="31" viewBox="0 0 23 31" fill="none" xmlns="http://www.w3.org/2000/svg">
<path d="M8.60124 29.4706H14.0596M5.87207 19.9185H16.7887M1.77832 11.731C1.77832 9.19767 2.7847 6.76806 4.57606 4.9767C6.36743 3.18533 8.79704 2.17896 11.3304 2.17896C13.8638 2.17896 16.2934 3.18533 18.0847 4.9767C19.8761 6.76806 20.8825 9.19767 20.8825 11.731C20.8834 13.269 20.5114 14.7843 19.7984 16.147C19.0855 17.5098 18.0527 18.6794 16.7887 19.5556L16.0491 23.0571C15.9512 23.7025 15.6252 24.2914 15.1302 24.717C14.6353 25.1426 14.0041 25.3767 13.3514 25.3769H9.30946C8.65666 25.3767 8.02554 25.1426 7.53057 24.717C7.03561 24.2914 6.70959 23.7025 6.61168 23.0571L5.87207 19.5706C4.60766 18.6913 3.57489 17.5189 2.86201 16.1538C2.14912 14.7886 1.77731 13.2711 1.77832 11.731Z" stroke="#8C77EC" stroke-width="2.83333" stroke-linecap="round" stroke-linejoin="round"/>
</svg>
