<svg width="34" height="33" viewBox="0 0 34 33" fill="none" xmlns="http://www.w3.org/2000/svg">
<path d="M17.3286 13.8032C19.5893 13.8032 21.4219 11.9706 21.4219 9.70997C21.4219 7.44932 19.5893 5.6167 17.3286 5.6167C15.068 5.6167 13.2354 7.44932 13.2354 9.70997C13.2354 11.9706 15.068 13.8032 17.3286 13.8032Z" stroke="#032902" stroke-opacity="0.7" stroke-width="2.72885"/>
<path d="M6.41309 24.7189C6.41309 23.2715 6.98809 21.8833 8.01161 20.8598C9.03512 19.8362 10.4233 19.2612 11.8708 19.2612H22.7862C24.2336 19.2612 25.6218 19.8362 26.6453 20.8598C27.6688 21.8833 28.2438 23.2715 28.2438 24.7189C28.2438 25.4427 27.9563 26.1367 27.4446 26.6485C26.9328 27.1603 26.2387 27.4478 25.515 27.4478H9.14193C8.4182 27.4478 7.7241 27.1603 7.21235 26.6485C6.70059 26.1367 6.41309 25.4427 6.41309 24.7189Z" stroke="#032902" stroke-opacity="0.7" stroke-width="2.72885" stroke-linejoin="round"/>
</svg>
