<svg width="28" height="28" viewBox="0 0 28 28" fill="none" xmlns="http://www.w3.org/2000/svg">
<path d="M0.682617 13.8234C0.682617 21.3591 6.79114 27.4677 14.3268 27.4677C21.8625 27.4677 27.9711 21.3591 27.9711 13.8234C27.9711 6.28772 21.8625 0.179199 14.3268 0.179199C6.79114 0.179199 0.682617 6.28772 0.682617 13.8234ZM25.2422 13.8234C25.2422 16.7184 24.0922 19.4947 22.0452 21.5418C19.9982 23.5888 17.2218 24.7388 14.3268 24.7388C11.4319 24.7388 8.65553 23.5888 6.6085 21.5418C4.56147 19.4947 3.41146 16.7184 3.41146 13.8234C3.41146 10.9285 4.56147 8.15212 6.6085 6.10509C8.65553 4.05805 11.4319 2.90804 14.3268 2.90804C17.2218 2.90804 19.9982 4.05805 22.0452 6.10509C24.0922 8.15212 25.2422 10.9285 25.2422 13.8234ZM22.5134 13.8234C22.515 14.8988 22.304 15.9638 21.8926 16.9573C21.4812 17.9509 20.8775 18.8533 20.1161 19.6127L14.3268 13.8234V5.63689C16.498 5.63689 18.5803 6.4994 20.1156 8.03467C21.6509 9.56994 22.5134 11.6522 22.5134 13.8234Z" fill="#032902" fill-opacity="0.7"/>
</svg>
