<svg width="25" height="26" viewBox="0 0 25 26" fill="none" xmlns="http://www.w3.org/2000/svg">
<path d="M23.2419 13.2113H1.41113M17.7842 2.2959H20.5131C21.2368 2.2959 21.9309 2.5834 22.4426 3.09516C22.9544 3.60692 23.2419 4.30101 23.2419 5.02474V7.75359M6.86882 24.1267H4.13998C3.41624 24.1267 2.72215 23.8392 2.21039 23.3274C1.69864 22.8156 1.41113 22.1216 1.41113 21.3978V18.669M23.2419 18.669V21.3978C23.2419 22.1216 22.9544 22.8156 22.4426 23.3274C21.9309 23.8392 21.2368 24.1267 20.5131 24.1267H17.7842M1.41113 7.75359V5.02474C1.41113 4.30101 1.69864 3.60692 2.21039 3.09516C2.72215 2.5834 3.41624 2.2959 4.13998 2.2959H6.86882" stroke="#032902" stroke-opacity="0.7" stroke-width="2.72885" stroke-linecap="round" stroke-linejoin="round"/>
</svg>
