<svg width="34" height="33" viewBox="0 0 34 33" fill="none" xmlns="http://www.w3.org/2000/svg">
<path d="M28.1062 17.4021C27.8875 17.1531 27.7668 16.833 27.7668 16.5015C27.7668 16.1701 27.8875 15.85 28.1062 15.601L29.8527 13.6363C30.0451 13.4216 30.1646 13.1515 30.194 12.8647C30.2234 12.5779 30.1613 12.2892 30.0164 12.0399L27.2875 7.31899C27.1441 7.07001 26.9258 6.87265 26.6637 6.75505C26.4015 6.63745 26.1089 6.60561 25.8276 6.66406L23.2625 7.18254C22.9361 7.24999 22.5963 7.19563 22.3072 7.02973C22.0182 6.86383 21.7998 6.59787 21.6934 6.28203L20.8611 3.78513C20.7696 3.51413 20.5952 3.27875 20.3626 3.11226C20.13 2.94576 19.851 2.85659 19.5649 2.85732H14.1072C13.8097 2.84179 13.5152 2.92408 13.2689 3.09161C13.0225 3.25915 12.8377 3.50272 12.7428 3.78513L11.9787 6.28203C11.8723 6.59787 11.654 6.86383 11.3649 7.02973C11.0758 7.19563 10.736 7.24999 10.4096 7.18254L7.7763 6.66406C7.50962 6.62638 7.23776 6.66846 6.99496 6.78501C6.75216 6.90155 6.54928 7.08735 6.41188 7.31899L3.68303 12.0399C3.53453 12.2864 3.46776 12.5735 3.49226 12.8602C3.51677 13.1469 3.6313 13.4186 3.81947 13.6363L5.55229 15.601C5.77103 15.85 5.89167 16.1701 5.89167 16.5015C5.89167 16.833 5.77103 17.1531 5.55229 17.4021L3.81947 19.3668C3.6313 19.5845 3.51677 19.8562 3.49226 20.1429C3.46776 20.4296 3.53453 20.7167 3.68303 20.9632L6.41188 25.6841C6.55528 25.9331 6.77361 26.1304 7.03576 26.248C7.29791 26.3657 7.5905 26.3975 7.87181 26.339L10.4369 25.8206C10.7633 25.7531 11.1031 25.8075 11.3922 25.9734C11.6812 26.1393 11.8996 26.4052 12.006 26.7211L12.8383 29.218C12.9332 29.5004 13.118 29.7439 13.3644 29.9115C13.6108 30.079 13.9052 30.1613 14.2027 30.1458H19.6604C19.9465 30.1465 20.2255 30.0573 20.4581 29.8908C20.6907 29.7244 20.8651 29.489 20.9566 29.218L21.7889 26.7211C21.8953 26.4052 22.1137 26.1393 22.4028 25.9734C22.6918 25.8075 23.0316 25.7531 23.358 25.8206L25.9231 26.339C26.2044 26.3975 26.497 26.3657 26.7592 26.248C27.0213 26.1304 27.2397 25.9331 27.3831 25.6841L30.1119 20.9632C30.2568 20.7139 30.3189 20.4252 30.2895 20.1384C30.2601 19.8516 30.1406 19.5815 29.9482 19.3668L28.1062 17.4021ZM26.0732 19.2304L27.1647 20.4584L25.4183 23.4874L23.8083 23.1599C22.8256 22.9591 21.8033 23.126 20.9356 23.629C20.0679 24.1321 19.415 24.9362 19.101 25.8888L18.5825 27.4169H15.0896L14.5984 25.8615C14.2844 24.9089 13.6316 24.1048 12.7638 23.6017C11.8961 23.0987 10.8738 22.9318 9.89116 23.1326L8.28114 23.4601L6.50739 20.4447L7.59893 19.2168C8.27016 18.4663 8.64125 17.4948 8.64125 16.4879C8.64125 15.4811 8.27016 14.5095 7.59893 13.7591L6.50739 12.5311L8.25385 9.52935L9.86387 9.85681C10.8466 10.0577 11.8688 9.89076 12.7365 9.38772C13.6043 8.88468 14.2571 8.08055 14.5711 7.12797L15.0896 5.58617H18.5825L19.101 7.14161C19.415 8.09419 20.0679 8.89833 20.9356 9.40137C21.8033 9.9044 22.8256 10.0713 23.8083 9.87046L25.4183 9.54299L27.1647 12.572L26.0732 13.8C25.4095 14.5487 25.043 15.5146 25.043 16.5152C25.043 17.5157 25.4095 18.4817 26.0732 19.2304ZM16.8361 11.0439C15.7566 11.0439 14.7014 11.3639 13.8039 11.9636C12.9064 12.5633 12.2069 13.4157 11.7938 14.413C11.3807 15.4102 11.2727 16.5076 11.4832 17.5663C11.6938 18.625 12.2136 19.5974 12.9769 20.3607C13.7402 21.124 14.7126 21.6438 15.7713 21.8544C16.83 22.065 17.9274 21.9569 18.9246 21.5438C19.9219 21.1307 20.7743 20.4312 21.374 19.5337C21.9737 18.6362 22.2938 17.581 22.2938 16.5015C22.2938 15.0541 21.7188 13.6659 20.6952 12.6424C19.6717 11.6189 18.2835 11.0439 16.8361 11.0439ZM16.8361 19.2304C16.2964 19.2304 15.7688 19.0704 15.32 18.7705C14.8712 18.4707 14.5215 18.0445 14.3149 17.5458C14.1084 17.0472 14.0544 16.4985 14.1597 15.9692C14.2649 15.4398 14.5248 14.9536 14.9065 14.572C15.2881 14.1903 15.7744 13.9304 16.3037 13.8251C16.833 13.7198 17.3817 13.7739 17.8803 13.9804C18.379 14.187 18.8052 14.5367 19.105 14.9855C19.4049 15.4342 19.5649 15.9618 19.5649 16.5015C19.5649 17.2253 19.2774 17.9194 18.7657 18.4311C18.2539 18.9429 17.5598 19.2304 16.8361 19.2304Z" fill="#032902" fill-opacity="0.7"/>
</svg>
