<svg width="47" height="46" viewBox="0 0 47 46" fill="none" xmlns="http://www.w3.org/2000/svg">
<g filter="url(#filter0_di_522_892)">
<path d="M21.6107 1.76217C22.061 -0.159992 24.7972 -0.159991 25.2474 1.76217C25.608 3.30127 27.5983 3.72433 28.5537 2.46494C29.7469 0.892106 32.2465 2.00501 31.876 3.94414C31.5794 5.49682 33.2256 6.69285 34.6106 5.93093C36.3404 4.97938 38.1712 7.01275 37.0441 8.63356C36.1416 9.93135 37.159 11.6935 38.7341 11.5608C40.7014 11.3951 41.5469 13.9974 39.8579 15.0196C38.5056 15.8381 38.7183 17.8618 40.2113 18.3812C42.0758 19.03 41.7898 21.7511 39.8311 21.998C38.2628 22.1957 37.634 24.1309 38.7866 25.2127C40.2261 26.5638 38.858 28.9334 36.9682 28.3622C35.4551 27.9049 34.0935 29.4171 34.7065 30.8742C35.472 32.6939 33.2584 34.3022 31.7643 33.0118C30.568 31.9786 28.7091 32.8062 28.6764 34.3866C28.6356 36.3604 25.9592 36.9293 25.1191 35.1427C24.4465 33.7122 22.4117 33.7122 21.739 35.1427C20.8989 36.9293 18.2226 36.3604 18.1817 34.3866C18.1491 32.8062 16.2902 31.9786 15.0938 33.0118C13.5997 34.3022 11.3861 32.6939 12.1517 30.8742C12.7646 29.4171 11.4031 27.9049 9.88991 28.3622C8.00012 28.9334 6.63205 26.5638 8.07154 25.2127C9.22416 24.1309 8.59537 22.1957 7.02703 21.998C5.06832 21.7511 4.78232 19.03 6.64688 18.3812C8.13986 17.8618 8.35255 15.8381 7.0002 15.0196C5.31126 13.9974 6.15678 11.3951 8.12401 11.5608C9.69919 11.6935 10.7166 9.93135 9.81408 8.63356C8.68694 7.01275 10.5178 4.97938 12.2475 5.93093C13.6326 6.69285 15.2787 5.49682 14.9821 3.94414C14.6117 2.00501 17.1113 0.892106 18.3044 2.46494C19.2598 3.72433 21.2502 3.30127 21.6107 1.76217Z" fill="#FFC400"/>
<path d="M22.6337 2.00183C22.8307 1.16107 24.0275 1.16107 24.2244 2.00183C24.7878 4.40681 27.8979 5.06788 29.3908 3.09997C29.9127 2.41202 31.006 2.89879 30.844 3.74697C30.3805 6.17319 32.9528 8.04211 35.1171 6.85154C35.8736 6.43534 36.6745 7.32472 36.1814 8.03367C34.7712 10.0616 36.361 12.8152 38.8223 12.6078C39.6828 12.5354 40.0526 13.6736 39.3139 14.1207C37.2007 15.3997 37.5331 18.5619 39.866 19.3736C40.6816 19.6573 40.5565 20.8476 39.6997 20.9556C37.249 21.2645 36.2665 24.2885 38.0676 25.9789C38.6972 26.5698 38.0988 27.6063 37.2722 27.3565C34.9077 26.6419 32.7802 29.0048 33.738 31.2816C34.0728 32.0776 33.1046 32.781 32.4511 32.2166C30.5817 30.6021 27.677 31.8953 27.6259 34.3649C27.6081 35.2282 26.4374 35.4771 26.07 34.6956C25.0189 32.4603 21.8393 32.4603 20.7882 34.6956C20.4207 35.4771 19.2501 35.2282 19.2322 34.3649C19.1812 31.8953 16.2765 30.6021 14.4071 32.2166C13.7536 32.781 12.7853 32.0776 13.1202 31.2816C14.078 29.0048 11.9504 26.6419 9.58595 27.3565C8.75937 27.6063 8.16095 26.5698 8.7906 25.9789C10.5917 24.2885 9.60913 21.2645 7.15843 20.9556C6.30169 20.8476 6.17659 19.6573 6.99216 19.3736C9.32508 18.5619 9.65743 15.3997 7.54425 14.1207C6.80551 13.6736 7.17534 12.5354 8.03581 12.6078C10.4972 12.8152 12.087 10.0616 10.6767 8.03367C10.1837 7.32472 10.9845 6.43534 11.7411 6.85154C13.9053 8.04211 16.4777 6.17319 16.0142 3.74697C15.8521 2.89879 16.9455 2.41202 17.4673 3.09997C18.9602 5.06788 22.0703 4.40681 22.6337 2.00183Z" stroke="#D6FBC4" stroke-width="2.10142"/>
</g>
<defs>
<filter id="filter0_di_522_892" x="0.589337" y="-1.72082" width="45.6797" height="47.5453" filterUnits="userSpaceOnUse" color-interpolation-filters="sRGB">
<feFlood flood-opacity="0" result="BackgroundImageFix"/>
<feColorMatrix in="SourceAlpha" type="matrix" values="0 0 0 0 0 0 0 0 0 0 0 0 0 0 0 0 0 0 127 0" result="hardAlpha"/>
<feOffset dy="4.80324"/>
<feGaussianBlur stdDeviation="2.40162"/>
<feComposite in2="hardAlpha" operator="out"/>
<feColorMatrix type="matrix" values="0 0 0 0 0 0 0 0 0 0 0 0 0 0 0 0 0 0 0.13 0"/>
<feBlend mode="normal" in2="BackgroundImageFix" result="effect1_dropShadow_522_892"/>
<feBlend mode="normal" in="SourceGraphic" in2="effect1_dropShadow_522_892" result="shape"/>
<feColorMatrix in="SourceAlpha" type="matrix" values="0 0 0 0 0 0 0 0 0 0 0 0 0 0 0 0 0 0 127 0" result="hardAlpha"/>
<feOffset dx="-4.50304" dy="-2.40162"/>
<feGaussianBlur stdDeviation="1.02069"/>
<feComposite in2="hardAlpha" operator="arithmetic" k2="-1" k3="1"/>
<feColorMatrix type="matrix" values="0 0 0 0 0 0 0 0 0 0 0 0 0 0 0 0 0 0 0.25 0"/>
<feBlend mode="normal" in2="shape" result="effect2_innerShadow_522_892"/>
</filter>
</defs>
</svg>
