<svg width="20" height="18" viewBox="0 0 20 18" fill="none" xmlns="http://www.w3.org/2000/svg">
<path fill-rule="evenodd" clip-rule="evenodd" d="M11.9137 0.987326C10.766 0.183913 9.23837 0.183911 8.09063 0.987325L2.35932 4.99925C1.39381 5.67511 0.856954 6.81058 0.947345 7.98567L1.53486 15.6234C1.64567 17.0638 2.95084 18.1108 4.38105 17.9065L7.0224 17.5292C8.25402 17.3532 9.16884 16.2984 9.16884 15.0543V13.9998C9.16884 13.5396 9.54194 13.1665 10.0022 13.1665C10.4624 13.1665 10.8355 13.5396 10.8355 13.9998V15.0543C10.8355 16.2984 11.7503 17.3532 12.982 17.5292L15.6233 17.9065C17.0535 18.1108 18.3587 17.0639 18.4695 15.6234L19.057 7.98568C19.1474 6.81059 18.6105 5.67511 17.645 4.99925L11.9137 0.987326ZM9.0464 2.35271C9.62027 1.95101 10.3841 1.95101 10.9579 2.35271L16.6893 6.36463C17.172 6.70256 17.4404 7.2703 17.3952 7.85785L16.8077 15.4955C16.7708 15.9757 16.3357 16.3247 15.859 16.2566L13.2177 15.8793C12.8071 15.8206 12.5022 15.469 12.5022 15.0543V13.9998C12.5022 12.6191 11.3829 11.4998 10.0022 11.4998C8.62146 11.4998 7.50218 12.6191 7.50218 13.9998V15.0543C7.50218 15.469 7.19723 15.8206 6.78669 15.8793L4.14535 16.2566C3.66861 16.3247 3.23355 15.9757 3.19662 15.4955L2.6091 7.85785C2.56391 7.2703 2.83233 6.70256 3.31509 6.36463L9.0464 2.35271Z" fill="#0C2503"/>
</svg>
