<svg width="404" height="408" viewBox="0 0 404 408" fill="none" xmlns="http://www.w3.org/2000/svg">
<path d="M269.742 146.616L270.344 145.902L369.199 28.8304C375.152 21.7814 374.262 11.2388 367.213 5.28658C360.164 -0.665607 349.622 0.223763 343.67 7.27272L244.815 124.344L244.212 125.058L269.742 146.616ZM344.625 20.4411C349.021 14.8453 355.267 12.4132 358.574 15.0089C361.886 17.6084 361.004 24.2549 356.608 29.8548C352.216 35.4502 345.967 37.8827 342.659 35.287C339.347 32.6875 340.23 26.041 344.625 20.4411Z" fill="#0A0B0A" stroke="black" stroke-width="0.418182" stroke-miterlimit="10"/>
<path d="M233.525 133.13L263.348 158.312L272.375 147.622L242.552 122.439L233.525 133.13Z" fill="#898483" stroke="black" stroke-width="0.418182" stroke-miterlimit="10"/>
<path d="M149.186 113.383C71.1693 119.965 13.2598 188.546 19.8414 266.563C26.4229 344.58 95.0032 402.49 173.02 395.909C251.036 389.327 308.946 320.747 302.364 242.729C295.783 164.712 227.202 106.802 149.186 113.383Z" fill="#898483" stroke="#EDFAE7" stroke-width="8.36364" stroke-miterlimit="10"/>
<path d="M147.054 127.832C78.7035 133.598 27.9686 193.682 33.7348 262.034C39.5009 330.385 99.5845 381.121 167.935 375.355C236.286 369.589 287.021 309.504 281.255 241.153C275.489 172.802 215.405 122.066 147.054 127.832Z" fill="#9F9C9C"/>
<path d="M232.075 332.341C233.012 331.599 233.878 330.775 234.653 329.866C240.903 322.565 269.375 286.674 262.681 246.077C262.681 246.077 259.353 224.527 248.475 209.161C248.08 208.603 247.8 207.976 247.673 207.307C246.776 202.754 242.304 183.763 228.86 177.167C228.86 177.167 218.992 171.633 214.73 166.73C213.043 164.791 211.003 163.196 208.65 162.165C191.042 154.417 124.947 129.764 83.561 175.156C83.561 175.156 55.4976 211.516 51.1205 244.2C50.6032 246.774 49.9211 250.428 49.2908 254.846C47.8612 264.863 47.1422 269.871 48.1993 274.243C49.6054 280.067 52.7021 281.703 59.3169 289.723C62.6741 293.8 67.2043 299.843 71.8117 308.045C72.8585 309.908 74.208 311.578 75.7934 313.009C77.7557 314.778 80.1896 316.667 83.1394 318.403C88.3104 321.446 93.2211 322.946 96.9204 323.716C98.3855 324.021 99.7839 324.579 101.077 325.33C109.736 330.366 120.365 335.634 132.914 340.069C152.855 347.12 170.783 349.653 184.311 350.472C184.307 350.472 210.368 349.482 232.075 332.341Z" fill="#EDA145"/>
<path d="M234.685 316.006C234.685 316.006 193.72 347.781 165.178 342.744C165.178 342.744 98.4342 337.572 76.855 290.711C76.855 290.711 46.2274 251.008 69.9165 208.461C69.9165 208.461 90.9295 164.042 134.753 161.184C134.753 161.184 198.925 155.771 219.686 182.977C219.686 182.977 252.874 215.429 257.269 246.534C257.269 246.534 261.569 286.459 234.685 316.006Z" fill="#F4C790"/>
<path d="M170.857 213.475C168.016 218.502 168.964 224.414 172.973 226.68C176.983 228.945 182.536 226.707 185.376 221.68C188.217 216.653 187.269 210.741 183.26 208.475C179.25 206.21 173.697 208.448 170.857 213.475Z" fill="#EDA145"/>
<path d="M161.88 259.995C160.062 263.212 161.179 267.284 164.374 269.089C167.569 270.895 171.633 269.75 173.451 266.533C175.268 263.316 174.152 259.244 170.957 257.439C167.762 255.633 163.698 256.778 161.88 259.995Z" fill="#EDA145"/>
<path d="M143.583 237.085C142.017 239.856 142.966 243.356 145.703 244.902C148.44 246.449 151.928 245.456 153.493 242.685C155.059 239.914 154.11 236.415 151.373 234.868C148.636 233.322 145.149 234.314 143.583 237.085Z" fill="#EDA145"/>
<path d="M206.363 240.181C204.798 242.952 205.732 246.444 208.451 247.98C211.169 249.516 214.642 248.515 216.208 245.744C217.774 242.973 216.839 239.482 214.121 237.946C211.402 236.409 207.929 237.41 206.363 240.181Z" fill="#EDA145"/>
<path d="M178.838 268.479C177.533 270.789 178.354 273.724 180.672 275.034C182.991 276.344 185.928 275.533 187.234 273.223C188.539 270.913 187.718 267.978 185.4 266.668C183.081 265.358 180.144 266.169 178.838 268.479Z" fill="#EDA145"/>
<path d="M160.81 188.808C159.704 190.764 160.387 193.243 162.336 194.344C164.284 195.445 166.76 194.751 167.865 192.795C168.971 190.838 168.288 188.36 166.339 187.259C164.391 186.158 161.915 186.851 160.81 188.808Z" fill="#EDA145"/>
<path d="M183.86 188.542C182.755 190.498 183.438 192.977 185.387 194.078C187.335 195.179 189.811 194.485 190.916 192.529C192.022 190.572 191.338 188.094 189.39 186.993C187.442 185.892 184.966 186.585 183.86 188.542Z" fill="#EDA145"/>
<path d="M208.111 206C206.944 208.065 207.718 210.711 209.84 211.91C211.961 213.108 214.627 212.406 215.793 210.341C216.96 208.276 216.187 205.63 214.065 204.431C211.944 203.233 209.278 203.935 208.111 206Z" fill="#EDA145"/>
<path d="M184.87 285.185C183.84 287.008 184.448 289.303 186.23 290.31C188.011 291.316 190.291 290.654 191.322 288.83C192.352 287.006 191.743 284.712 189.962 283.705C188.18 282.699 185.901 283.361 184.87 285.185Z" fill="#EDA145"/>
<path d="M210.699 269.657C210.381 270.22 210.643 270.97 211.284 271.333C211.926 271.695 212.703 271.533 213.022 270.97C213.34 270.407 213.078 269.656 212.436 269.294C211.795 268.931 211.017 269.094 210.699 269.657Z" fill="#EDA145"/>
<path d="M231.464 267.066C231.146 267.629 231.408 268.379 232.05 268.741C232.691 269.104 233.469 268.941 233.787 268.378C234.105 267.815 233.843 267.065 233.202 266.702C232.56 266.34 231.783 266.503 231.464 267.066Z" fill="#EDA145"/>
<path d="M229.297 244.549C228.798 245.432 229.08 246.536 229.927 247.014C230.773 247.492 231.864 247.164 232.362 246.282C232.861 245.399 232.579 244.296 231.733 243.817C230.886 243.339 229.796 243.667 229.297 244.549Z" fill="#EDA145"/>
<path d="M198.808 287.867C198.49 288.43 198.752 289.18 199.394 289.543C200.035 289.905 200.813 289.742 201.131 289.179C201.449 288.616 201.187 287.866 200.546 287.504C199.904 287.141 199.126 287.304 198.808 287.867Z" fill="#EDA145"/>
<path d="M218.299 293.105C218.063 293.523 218.327 294.12 218.89 294.438C219.453 294.756 220.101 294.675 220.338 294.257C220.574 293.839 220.309 293.242 219.746 292.923C219.183 292.605 218.535 292.686 218.299 293.105Z" fill="#EDA145"/>
</svg>
